<!-- Generated by IcoMoon.io -->
<svg version="1.1" xmlns="http://www.w3.org/2000/svg" width="1024" height="1024" viewBox="0 0 1024 1024">
<title></title>
<g id="icomoon-ignore">
</g>
<path d="M938.667 768.256c-0.024 23.428-19.022 42.411-42.453 42.411h-341.76c-22.636-1.047-40.592-19.653-40.592-42.453s17.956-41.407 40.498-42.45l0.094-0.003h341.76c23.467 0 42.453 18.987 42.453 42.496zM938.667 512c0 23.467-19.029 42.411-42.453 42.411h-768.427c-0.063 0-0.139 0.001-0.214 0.001-23.329 0-42.24-18.911-42.24-42.24 0-0.060 0-0.12 0-0.181v0.009c0-0.013 0-0.028 0-0.043 0-23.399 18.969-42.368 42.368-42.368 0.030 0 0.060 0 0.090 0h768.422c23.467 0 42.453 18.987 42.453 42.411zM896.213 298.24c23.422-0.097 42.381-19.070 42.453-42.489v-0.007c-0.049-23.418-19.032-42.386-42.451-42.411h-512.429c-0.020 0-0.044 0-0.068 0-5.828 0-11.377 1.192-16.418 3.346l0.273-0.104c-10.484 4.324-18.66 12.459-22.937 22.636l-0.103 0.276c-2.020 4.807-3.194 10.394-3.194 16.256s1.174 11.449 3.299 16.54l-0.105-0.284c2.176 5.163 5.291 9.813 9.216 13.824 7.736 7.605 18.327 12.328 30.020 12.416h512.444z"></path>
</svg>
