<?xml version="1.0" standalone="no"?>
<!DOCTYPE svg PUBLIC "-//W3C//DTD SVG 20010904//EN"
 "http://www.w3.org/TR/2001/REC-SVG-20010904/DTD/svg10.dtd">
<svg version="1.0" xmlns="http://www.w3.org/2000/svg"
 width="231.000000pt" height="159.000000pt" viewBox="0 0 231.000000 159.000000"
 preserveAspectRatio="xMidYMid meet">
<metadata>
Created by potrace 1.10, written by Peter Selinger 2001-2011
</metadata>
<g transform="translate(0.000000,159.000000) scale(0.100000,-0.100000)"
fill="#000000" stroke="none">
<path d="M253 1527 c-65 -24 -119 -73 -149 -133 l-29 -59 0 -510 c0 -547 1
-554 52 -615 14 -17 21 -30 17 -30 -13 0 49 -60 84 -82 39 -24 120 -43 221
-53 88 -9 220 -9 229 -1 3 3 -17 6 -44 6 -56 0 -286 25 -329 36 -39 9 -129 54
-122 60 3 3 25 -5 49 -18 l43 -23 890 0 890 0 50 23 c60 28 100 64 128 117 22
39 22 49 25 560 2 467 1 524 -14 564 -23 60 -79 119 -139 147 l-50 24 -885 -1
c-651 0 -893 -4 -917 -12z m1872 -42 c33 -21 57 -47 79 -85 l31 -55 0 -525 c0
-522 0 -525 -22 -566 -25 -47 -71 -89 -123 -113 -31 -14 -130 -16 -915 -16
-976 0 -925 -3 -1001 67 -80 74 -79 66 -79 633 0 449 2 504 17 537 24 53 69
110 83 104 6 -2 34 0 61 5 32 6 88 6 159 -1 149 -15 331 -24 324 -16 -3 3 -32
9 -65 11 -32 3 -84 10 -114 15 -120 20 -263 23 -310 6 -59 -20 -65 -12 -9 14
43 19 62 20 940 17 l896 -2 48 -30z m-1954 -1322 c13 -16 12 -17 -3 -4 -10 7
-18 15 -18 17 0 8 8 3 21 -13z"/>
<path d="M1958 1496 c-1 -2 -43 -6 -93 -9 -49 -4 -91 -7 -93 -7 -2 0 0 -4 3
-10 3 -5 1 -10 -4 -10 -6 0 -11 4 -11 8 0 10 -86 -1 -97 -11 -10 -10 86 -8
148 3 30 5 104 11 164 12 98 3 115 0 155 -20 l45 -23 -30 25 c-30 26 -95 45
-152 45 -17 0 -33 -2 -35 -3z"/>
<path d="M1594 1458 c-3 -5 8 -7 25 -6 16 1 28 5 25 9 -6 10 -44 7 -50 -3z"/>
<path d="M445 1220 c-3 -5 -5 -86 -4 -180 2 -159 3 -170 20 -170 12 0 19 7 19
20 0 12 -7 20 -17 20 -17 1 -17 1 0 11 11 6 17 22 17 43 0 19 7 39 15 46 17
14 24 8 66 -57 23 -36 36 -41 46 -17 3 9 -7 34 -26 60 -17 25 -31 48 -31 53 0
4 11 18 25 31 26 25 34 60 13 60 -7 0 -34 -21 -61 -47 l-49 -48 2 60 c4 102 1
125 -14 125 -8 0 -18 -4 -21 -10z"/>
<path d="M985 1171 c-6 -54 -9 -59 -24 -49 -25 15 -68 2 -97 -29 -33 -36 -34
-110 -1 -141 29 -27 70 -37 97 -22 16 8 25 8 35 0 7 -6 15 -7 18 -3 3 4 6 73
8 153 4 128 2 145 -12 148 -14 2 -18 -9 -24 -57z m-21 -97 c22 -21 21 -83 -1
-100 -27 -20 -50 -17 -72 13 -44 55 25 136 73 87z"/>
<path d="M923 1033 c4 -3 1 -13 -6 -22 -11 -14 -10 -14 5 -2 16 12 16 31 1 31
-4 0 -3 -3 0 -7z"/>
<path d="M276 1199 c-97 -28 -100 -139 -4 -139 44 0 78 -20 78 -46 0 -50 -85
-72 -134 -33 -41 32 -66 0 -27 -35 40 -37 148 -28 186 14 11 12 19 36 19 57 0
44 -28 69 -88 78 -53 8 -68 17 -61 37 10 24 52 39 96 32 32 -5 39 -4 39 10 0
9 -6 18 -12 20 -36 11 -66 13 -92 5z"/>
<path d="M1080 1190 c0 -13 7 -20 18 -20 24 0 32 8 25 26 -8 22 -43 17 -43 -6z"/>
<path d="M1370 1191 c0 -26 17 -36 35 -21 18 15 8 40 -16 40 -12 0 -19 -7 -19
-19z"/>
<path d="M288 1142 c-27 -6 -21 -17 10 -19 15 0 39 -4 55 -8 21 -6 27 -4 27 9
0 10 -9 16 -22 17 -13 0 -30 2 -38 3 -8 1 -23 1 -32 -2z"/>
<path d="M1469 1128 c-2 -7 -4 -56 -4 -108 0 -79 3 -95 16 -98 13 -2 17 8 21
53 5 58 31 107 62 113 13 3 16 -6 16 -51 0 -82 9 -117 31 -117 17 0 18 7 12
88 -3 48 -10 95 -15 105 -11 21 -61 23 -78 2 -17 -20 -27 -19 -33 5 -6 22 -23
27 -28 8z"/>
<path d="M624 1116 c-4 -9 11 -50 33 -94 l40 -77 -19 -39 c-21 -42 -21 -81 1
-81 8 0 19 16 26 35 7 19 34 81 60 138 44 96 51 132 25 132 -6 0 -25 -29 -41
-65 l-30 -64 -32 61 c-33 64 -53 81 -63 54z"/>
<path d="M1081 1116 c-8 -9 -11 -43 -9 -97 2 -68 6 -84 19 -87 14 -3 18 10 21
85 5 93 -6 129 -31 99z"/>
<path d="M1165 1118 c-8 -20 60 -192 77 -196 17 -3 93 171 84 193 -10 27 -26
16 -47 -32 -10 -27 -23 -56 -27 -67 -6 -15 -13 -6 -33 44 -24 63 -44 84 -54
58z"/>
<path d="M1371 1116 c-8 -9 -11 -43 -9 -97 2 -68 6 -84 19 -87 14 -3 18 10 21
85 5 93 -6 129 -31 99z"/>
<path d="M1694 1102 c-72 -58 -52 -172 29 -172 18 0 38 5 45 12 15 15 16 1 1
-40 -12 -36 -34 -46 -85 -36 -32 6 -36 4 -32 -12 3 -16 12 -19 62 -19 82 0 94
18 107 154 9 94 8 105 -8 117 -25 19 -94 17 -119 -4z m88 -57 c-4 -51 -43 -95
-70 -79 -9 6 -18 26 -20 44 -4 42 31 82 68 78 23 -3 25 -7 22 -43z"/>
<path d="M1737 1035 c-8 -8 -18 -11 -22 -7 -5 4 -5 1 -1 -5 10 -19 24 -16 36
7 13 24 7 26 -13 5z"/>
<path d="M200 1071 c0 -17 47 -43 93 -52 37 -6 40 -6 22 7 -10 8 -29 14 -41
14 -12 0 -33 9 -48 21 -14 11 -26 16 -26 10z"/>
<path d="M375 938 c-15 -36 -103 -47 -157 -19 -43 22 -51 10 -11 -16 40 -26
136 -24 164 4 12 11 19 27 16 34 -3 11 -6 10 -12 -3z"/>
<path d="M540 925 c0 -8 24 -48 37 -62 14 -16 33 -17 33 -2 0 5 -6 7 -12 3
-10 -6 -10 -4 0 8 10 13 10 18 1 24 -8 5 -10 3 -4 -7 5 -8 -3 -2 -18 14 -25
26 -37 33 -37 22z"/>
<path d="M840 890 c-9 -16 -8 -18 5 -14 10 4 15 0 15 -11 0 -9 4 -14 9 -11 5
4 11 0 13 -6 3 -8 10 -3 18 12 12 23 12 24 -3 11 -16 -12 -21 -9 -18 12 0 4
-4 7 -10 7 -5 0 -7 5 -4 10 3 6 2 10 -4 10 -6 0 -15 -9 -21 -20z"/>
<path d="M1214 893 c2 -10 6 -17 10 -16 15 3 16 11 2 22 -12 10 -14 9 -12 -6z"/>
<path d="M1070 882 c0 -12 3 -12 15 -2 8 7 15 13 15 15 0 1 -7 2 -15 2 -8 0
-15 -7 -15 -15z"/>
<path d="M1255 889 c-4 -6 -4 -13 -1 -16 3 -4 6 -1 6 6 0 7 5 9 12 5 7 -4 8
-3 4 4 -9 15 -13 15 -21 1z"/>
<path d="M1395 890 c-3 -5 -13 -7 -23 -4 -14 5 -14 4 -2 -4 9 -7 19 -7 26 -2
6 6 15 6 19 2 5 -4 5 -1 1 6 -9 15 -13 15 -21 2z"/>
<path d="M1470 890 c-12 -7 -3 -40 11 -40 5 0 9 7 9 16 0 8 4 13 8 10 5 -3 9
1 9 8 0 14 -19 17 -37 6z"/>
<path d="M1577 893 c-8 -14 9 -46 24 -48 22 -4 21 33 -1 45 -10 6 -21 7 -23 3z"/>
<path d="M964 882 c4 -3 14 -7 22 -8 9 -1 13 0 10 4 -4 3 -14 7 -22 8 -9 1
-13 0 -10 -4z"/>
<path d="M1777 812 c-18 -20 -19 -20 -84 -23 -46 -2 -67 -25 -30 -34 19 -5 66
-1 75 6 3 2 19 6 32 8 6 0 10 10 10 22 0 11 4 18 8 15 5 -3 9 1 9 9 0 19 -1
19 -20 -3z"/>
<path d="M678 796 c-10 -7 -18 -21 -18 -30 0 -30 34 -14 42 22 7 25 1 27 -24
8z"/>
<path d="M919 693 c-13 -16 -12 -17 4 -4 9 7 17 15 17 17 0 8 -8 3 -21 -13z"/>
<path d="M218 673 c-15 -18 -68 -222 -68 -262 0 -16 6 -21 25 -21 29 0 41 22
51 101 7 55 17 50 28 -16 10 -55 33 -88 57 -82 10 3 19 1 19 -3 0 -13 -24 -18
-42 -8 -23 11 -24 -5 -2 -23 19 -16 43 -3 55 29 6 16 5 21 -2 16 -7 -4 -9 -1
-6 7 3 8 14 40 24 71 19 61 33 75 33 32 0 -40 21 -112 36 -125 20 -16 47 8 41
35 -3 12 -15 67 -26 124 -24 117 -35 145 -58 140 -20 -4 -27 -17 -54 -108
l-22 -75 -14 65 c-22 106 -45 137 -75 103z m43 -103 c24 -82 45 -99 73 -58 22
31 20 9 -5 -46 -11 -26 -24 -44 -29 -41 -8 5 -25 63 -23 75 1 3 -7 17 -18 30
-19 25 -19 25 -35 5 -15 -19 -15 -16 -9 35 8 63 28 99 33 59 2 -13 8 -40 13
-59z m133 68 c3 -7 6 -31 9 -53 4 -38 3 -40 -23 -40 -30 0 -33 14 -12 66 6 15
8 30 5 33 -4 3 -1 6 6 6 6 0 13 -6 15 -12z"/>
<path d="M940 631 c0 -25 -4 -30 -27 -33 -39 -4 -39 -42 -1 -46 27 -3 27 -5
30 -80 3 -75 4 -77 28 -77 25 0 25 1 25 78 l0 77 28 0 c15 0 28 5 29 10 4 30
0 35 -27 40 -16 3 -31 11 -31 18 -1 6 -2 19 -3 27 0 9 -11 15 -26 15 -21 0
-25 -5 -25 -29z m47 -47 c8 -22 -11 -38 -32 -27 -20 12 -21 23 -3 34 19 13 28
11 35 -7z"/>
<path d="M555 586 c-66 -29 -88 -124 -41 -171 22 -22 32 -24 98 -22 67 2 73 4
69 22 -2 11 -6 52 -8 92 -4 69 -5 72 -35 82 -39 14 -46 13 -83 -3z m60 -86 c0
-45 -2 -51 -24 -57 -47 -12 -62 45 -23 90 30 34 47 22 47 -33z m39 -68 c3 -5
-1 -9 -9 -9 -8 0 -15 4 -15 9 0 4 4 8 9 8 6 0 12 -4 15 -8z"/>
<path d="M732 584 c-17 -12 -22 -24 -20 -47 2 -27 11 -36 52 -58 55 -30 48
-43 -19 -33 -41 6 -45 4 -45 -15 0 -26 28 -41 77 -41 84 0 113 72 47 115 -74
47 -73 46 -16 40 l53 -6 -3 28 c-3 26 -7 28 -53 31 -34 2 -57 -3 -73 -14z"/>
<path d="M1121 586 c-54 -30 -70 -125 -27 -165 48 -45 166 -32 166 19 0 23
-11 25 -56 8 -22 -8 -40 -8 -55 -2 -20 9 -17 12 37 40 52 26 59 32 59 59 0 48
-69 71 -124 41z m69 -41 c0 -5 -56 -35 -66 -35 -4 0 1 9 11 20 16 17 55 28 55
15z m-71 -71 c-16 -19 -28 -17 -24 4 2 9 4 21 4 26 1 5 8 3 16 -4 12 -10 13
-16 4 -26z"/>
<path d="M1291 586 c-8 -9 -11 -46 -9 -103 3 -86 3 -88 28 -88 24 0 25 3 28
62 2 51 7 65 25 78 20 14 22 13 29 -5 10 -28 46 -26 54 4 13 53 -35 83 -88 55
-14 -8 -23 -8 -31 0 -15 15 -22 14 -36 -3z m49 -36 c0 -4 -6 -13 -14 -20 -12
-9 -15 -8 -13 8 1 17 27 28 27 12z"/>
<path d="M1492 584 c-17 -12 -22 -24 -20 -47 2 -27 11 -36 52 -58 55 -30 48
-43 -19 -33 -41 6 -45 4 -45 -15 0 -26 28 -41 77 -41 84 0 113 72 47 115 -74
47 -73 46 -16 40 l53 -6 -3 28 c-3 26 -7 28 -53 31 -34 2 -57 -3 -73 -14z"/>
<path d="M888 493 c7 -3 16 -2 19 1 4 3 -2 6 -13 5 -11 0 -14 -3 -6 -6z"/>
<path d="M1384 464 c18 -17 23 -18 23 -1 0 7 -9 14 -19 14 -16 2 -16 0 -4 -13z"/>
<path d="M180 380 c-22 -6 -23 -8 -7 -15 11 -4 23 -3 30 4 15 15 7 19 -23 11z"/>
<path d="M500 382 c1 -15 28 -42 50 -50 13 -5 40 -6 61 -2 31 6 39 4 41 -9 3
-14 4 -14 10 -1 3 9 0 24 -8 35 -12 16 -17 17 -40 7 -21 -10 -33 -9 -70 7 -24
11 -44 17 -44 13z"/>
<path d="M413 359 c5 -30 50 -34 55 -5 3 14 0 17 -13 12 -10 -3 -24 -1 -31 5
-12 10 -14 7 -11 -12z"/>
<path d="M1600 372 c0 -5 -15 -17 -34 -26 -26 -12 -41 -14 -60 -6 -21 8 -26 7
-26 -7 0 -9 3 -13 7 -10 3 4 12 2 19 -4 7 -6 19 -7 26 -3 7 5 21 9 31 9 22 2
60 42 47 50 -6 3 -10 2 -10 -3z"/>
<path d="M812 350 c-10 -17 -10 -20 6 -20 11 0 18 7 18 20 0 11 -3 20 -6 20
-3 0 -11 -9 -18 -20z"/>
<path d="M722 339 c3 -8 11 -14 19 -14 8 0 19 -4 25 -8 7 -4 14 0 18 8 3 8 0
15 -7 15 -7 0 -23 3 -36 7 -18 4 -22 2 -19 -8z"/>
<path d="M950 341 c0 -10 19 -25 25 -20 1 2 -3 10 -11 17 -8 7 -14 8 -14 3z"/>
<path d="M2135 131 c-19 -32 -280 -81 -426 -81 -23 0 -40 -2 -37 -6 7 -6 203
-6 243 1 106 19 145 30 187 54 27 14 48 29 48 34 0 10 -8 9 -15 -2z"/>
</g>
</svg>
